<?xml version="1.0" encoding="UTF-8"?> <svg xmlns="http://www.w3.org/2000/svg" id="Layer_2" data-name="Layer 2" viewBox="0 0 75.58 11.19"><defs><style> .cls-1 { fill: #f2a828; } .cls-2 { fill: #bb5336; } </style></defs><g id="Layer_1-2" data-name="Layer 1"><g><g><path class="cls-2" d="M15.91,10.71V.8h3.49c.73,0,1.37.12,1.9.37s.95.6,1.25,1.05.44.97.44,1.56c0,.76-.23,1.38-.69,1.87-.46.49-1.08.82-1.86.99l3,4.07h-1.87l-2.8-3.91h-1.25v3.91h-1.6ZM17.51,5.54h1.56c.45,0,.85-.06,1.2-.17.35-.11.62-.3.82-.56.2-.26.3-.58.3-.98,0-.57-.19-.99-.56-1.25-.38-.26-.9-.39-1.58-.39h-1.75v3.35Z"></path><path class="cls-2" d="M25.93,10.86c-.45,0-.89-.1-1.32-.3-.43-.2-.78-.48-1.05-.85-.27-.37-.41-.83-.41-1.37,0-.43.08-.79.25-1.08.17-.29.39-.53.68-.71.28-.18.6-.31.96-.39.36-.07.72-.11,1.1-.11s.76.03,1.11.1.68.17.96.32v-.24c0-.51-.18-.87-.54-1.08-.36-.21-.84-.32-1.44-.32-.44,0-.87.05-1.29.14-.42.09-.84.26-1.26.49v-1.31c.35-.14.75-.27,1.22-.4.46-.13.98-.19,1.54-.19.63,0,1.19.1,1.68.31s.88.52,1.18.93c.29.41.44.93.44,1.55v4.39l-1.55-.76c-.31.28-.64.5-1,.65-.36.15-.77.23-1.25.23ZM26.38,9.74c.4,0,.75-.07,1.05-.22s.56-.34.78-.58v-1.41c-.21-.12-.45-.23-.73-.32-.28-.09-.61-.13-1-.13-.29,0-.57.04-.85.13-.28.09-.5.23-.68.43s-.27.45-.27.76.08.55.24.75c.16.2.37.34.63.44.26.1.54.15.84.15Z"></path><path class="cls-2" d="M30.96,10.71V3.71l1.56.92c.24-.31.55-.57.92-.77.37-.2.8-.3,1.29-.3.54,0,1,.11,1.37.33.37.22.65.53.84.94s.29.88.29,1.43v4.45h-1.53v-3.98c0-.45-.08-.81-.23-1.07s-.34-.45-.57-.57c-.23-.12-.47-.18-.72-.18-.24,0-.48.06-.75.17-.26.11-.48.3-.66.56-.18.26-.27.62-.27,1.08v3.98h-1.53Z"></path><path class="cls-2" d="M38.36,10.71V3.71l1.56.92c.24-.31.55-.57.92-.77.37-.2.8-.3,1.29-.3.54,0,1,.11,1.37.33.37.22.65.53.84.94s.29.88.29,1.43v4.45h-1.53v-3.98c0-.45-.08-.81-.23-1.07s-.34-.45-.57-.57c-.23-.12-.47-.18-.72-.18-.24,0-.48.06-.75.17-.26.11-.48.3-.66.56-.18.26-.27.62-.27,1.08v3.98h-1.53Z"></path><path class="cls-2" d="M48.12,10.86c-.45,0-.89-.1-1.32-.3-.43-.2-.78-.48-1.05-.85-.27-.37-.41-.83-.41-1.37,0-.43.08-.79.25-1.08.17-.29.39-.53.68-.71.28-.18.6-.31.96-.39.36-.07.72-.11,1.1-.11s.76.03,1.11.1.68.17.96.32v-.24c0-.51-.18-.87-.54-1.08-.36-.21-.84-.32-1.44-.32-.44,0-.87.05-1.29.14-.42.09-.84.26-1.26.49v-1.31c.35-.14.75-.27,1.22-.4.46-.13.98-.19,1.54-.19.63,0,1.19.1,1.68.31s.88.52,1.18.93c.29.41.44.93.44,1.55v4.39l-1.55-.76c-.31.28-.64.5-1,.65-.36.15-.77.23-1.25.23ZM48.57,9.74c.4,0,.75-.07,1.05-.22s.56-.34.78-.58v-1.41c-.21-.12-.45-.23-.73-.32-.28-.09-.61-.13-1-.13-.29,0-.57.04-.85.13-.28.09-.5.23-.68.43s-.27.45-.27.76.08.55.24.75c.16.2.37.34.63.44.26.1.54.15.84.15Z"></path><path class="cls-1" d="M53.3,10.71V.8h3.38c.61,0,1.18.08,1.7.25.53.17.95.43,1.27.8.32.36.48.84.48,1.44,0,.54-.12,1.01-.37,1.41s-.61.68-1.09.86c.77.13,1.34.41,1.7.84.37.43.55.96.55,1.58,0,.51-.14.97-.42,1.39-.28.42-.7.75-1.27.99s-1.32.36-2.24.36h-3.69ZM54.86,5.05h1.76c.67,0,1.15-.14,1.46-.42.31-.28.46-.63.46-1.06,0-.5-.17-.86-.51-1.1s-.8-.35-1.39-.35h-1.79v2.93ZM54.86,9.37h2.2c.79,0,1.37-.13,1.73-.39.37-.26.55-.64.55-1.14s-.2-.87-.6-1.13c-.4-.27-1.08-.4-2.03-.4h-1.84v3.07Z"></path><path class="cls-1" d="M64.19,10.86c-.45,0-.89-.1-1.32-.3-.43-.2-.78-.48-1.05-.85-.27-.37-.41-.83-.41-1.37,0-.43.08-.79.25-1.08.17-.29.39-.53.68-.71.28-.18.6-.31.96-.39.36-.07.72-.11,1.1-.11s.76.03,1.11.1.68.17.96.32v-.24c0-.51-.18-.87-.54-1.08-.36-.21-.84-.32-1.44-.32-.44,0-.87.05-1.29.14-.42.09-.84.26-1.26.49v-1.31c.35-.14.75-.27,1.22-.4.46-.13.98-.19,1.54-.19.63,0,1.19.1,1.68.31s.88.52,1.18.93c.29.41.44.93.44,1.55v4.39l-1.55-.76c-.31.28-.64.5-1,.65-.36.15-.77.23-1.25.23ZM64.64,9.74c.4,0,.75-.07,1.05-.22s.56-.34.78-.58v-1.41c-.21-.12-.45-.23-.73-.32-.28-.09-.61-.13-1-.13-.29,0-.57.04-.85.13-.28.09-.5.23-.68.43s-.27.45-.27.76.08.55.24.75c.16.2.37.34.63.44.26.1.54.15.84.15Z"></path><path class="cls-1" d="M69.22,10.71V3.71l1.56.96c.24-.35.55-.61.93-.8.38-.19.77-.28,1.2-.28.09,0,.18,0,.26.01s.15.02.22.04v1.51c-.07-.04-.14-.06-.23-.08s-.18-.02-.29-.02c-.34,0-.67.08-.99.23-.32.15-.59.39-.8.71-.21.32-.32.75-.32,1.27v3.45h-1.53Z"></path><path class="cls-1" d="M74.55,2.53c-.27,0-.51-.09-.7-.27s-.3-.41-.3-.69.09-.53.28-.71c.19-.18.43-.27.72-.27s.53.09.73.26c.2.17.3.42.3.73,0,.28-.1.51-.3.69s-.44.27-.73.27ZM73.81,10.71V3.71h1.52v7h-1.52Z"></path></g><g><g><path class="cls-2" d="M6.49,3.51c.14-.29.18-.63.11-1.02-.06-.35-.19-.63-.39-.87-.2-.23-.46-.39-.79-.48-.33-.09-.73-.09-1.2-.01l-2.38.41.72,4.17,1.4-.24-.11-.66.61-.1.55.59,1.59-.27-.76-.79c.29-.19.51-.43.65-.72ZM5.18,3.16c-.04.1-.11.19-.22.26-.1.07-.23.12-.39.15l-.91.16-.21-1.21.91-.16c.23-.04.43-.02.58.05.15.08.24.21.28.41.02.12.01.23-.03.33Z"></path><path class="cls-1" d="M11.8,3.57c-.06-.34-.19-.59-.41-.76-.21-.16-.48-.26-.8-.3.21-.14.38-.31.49-.52.11-.21.14-.46.09-.75-.05-.27-.15-.48-.33-.65-.17-.16-.39-.27-.66-.33-.27-.06-.58-.06-.94,0l-2.57.44.72,4.17,4.39-.76c.04-.17.05-.36.02-.56ZM8.23,1.6l.9-.15c.21-.04.37-.03.49.03.12.06.19.15.21.29.03.15-.01.27-.11.37-.1.1-.25.16-.47.2l-.87.15-.15-.88ZM10.26,3.99c-.1.1-.26.17-.48.21l-1.07.18-.16-.93,1.06-.18c.23-.04.41-.03.54.03.13.06.21.16.23.3.03.15-.01.27-.12.38Z"></path></g><path class="cls-2" d="M12.96,4.15L1.1,6.19c.56,3.28,3.68,5.48,6.95,4.91,3.28-.56,5.48-3.68,4.91-6.95ZM10.42,8.95c.84-.74,1.29-2.08,1.12-3.53l.72-.12c.27,1.55-.52,3.03-1.83,3.65Z"></path><path class="cls-1" d="M12.09,3.13s.31-1.25-.2-2.21c-.52-.99.23-1.3.71-.36.42.81.16,1.97-.52,2.57Z"></path><path class="cls-1" d="M1.93,4.95s-.77-.87-1.14-2.78c-.1-.52-.73-.44-.34.66.6,1.71,1.48,2.12,1.48,2.12Z"></path><path class="cls-2" d="M2.47,5.6s-.71-.35-1.48-1.13C.35,3.82.19,3.66.05,3.75c-.14.08,0,.52.72,1.09,1,.78,1.69.77,1.69.77Z"></path></g></g></g></svg> 